# xmcd CD database file
#
# Track frame offsets:
#	150
#	13550
#	24232
#	35400
#	45185
#	63520
#	74927
#	94060
#	112012
#	122075
#	144037
#	153595
#	164625
#	177335
#	188307
#	199190
#	211092
#	229322
#	254650
#	264712
#	276087
#
# Disc length: 3788 seconds
#
# Revision: 1
# Processed by: cddbd v1.5.1PL0 Copyright (c) Steve Scherf et al.
# Submitted via: CDex 1.51
#
DISCID=2d0eca15
DTITLE=Monica Zetterlund - Swedish Sensation! The Complete Columbia Recordings 1958-1960 [CD1] [EMI #4750612, 1993]
DYEAR=1958
DGENRE=Jazz
TTITLE0=I Should Care
TTITLE1=It's All-Right with Me
TTITLE2=Imagination
TTITLE3=Easy Street
TTITLE4=Opus Sex
TTITLE5=I Didn't Know What Time It Was
TTITLE6=Yesterdays
TTITLE7=Love for Sale
TTITLE8=Darn That Dream
TTITLE9=He's Funny That Way
TTITLE10=I'll Take Romance
TTITLE11=Deep in a Dream
TTITLE12=Ther's No You
TTITLE13=The Things We Did Last Summer
TTITLE14=My Old Flame
TTITLE15=My Heart, My Mind, My Everything
TTITLE16=Spring Is Here
TTITLE17=Easy Living
TTITLE18=Don't Be That Way
TTITLE19=More Than You Know
TTITLE20=Lonesome Road
EXTD=YEAR: 1958
EXTT0=
EXTT1=
EXTT2=
EXTT3=
EXTT4=
EXTT5=
EXTT6=
EXTT7=
EXTT8=
EXTT9=
EXTT10=
EXTT11=
EXTT12=
EXTT13=
EXTT14=
EXTT15=
EXTT16=
EXTT17=
EXTT18=
EXTT19=
EXTT20=
PLAYORDER=
